<?xml version="1.0" standalone="no"?>
<!DOCTYPE svg PUBLIC "-//W3C//DTD SVG 20010904//EN"
 "http://www.w3.org/TR/2001/REC-SVG-20010904/DTD/svg10.dtd">
<svg version="1.0" xmlns="http://www.w3.org/2000/svg"
 width="1000.000000pt" height="1000.000000pt" viewBox="0 0 1000.000000 1000.000000"
 preserveAspectRatio="xMidYMid meet">

<g transform="translate(0.000000,1000.000000) scale(0.100000,-0.100000)"
fill="#000000" stroke="none">
<path d="M5224 6319 c-7 -8 -49 -73 -92 -145 -44 -71 -97 -157 -118 -191 -21
-34 -63 -102 -93 -150 -30 -48 -140 -225 -244 -392 -180 -290 -280 -451 -302
-489 -5 -10 -21 -32 -34 -50 -52 -73 -7 -36 110 90 375 405 484 522 599 643
113 121 303 325 321 346 8 10 73 79 143 153 70 75 137 147 148 161 11 14 24
25 29 25 5 0 9 -93 9 -224 0 -244 -3 -231 65 -258 36 -14 197 -82 560 -235 72
-31 155 -66 185 -78 30 -13 120 -51 200 -85 80 -34 157 -66 173 -72 15 -5 27
-13 27 -18 0 -4 -37 -23 -82 -43 -46 -19 -139 -58 -208 -87 -69 -29 -177 -75
-240 -102 -63 -27 -126 -54 -140 -60 -14 -5 -140 -58 -280 -117 l-255 -107 -3
-232 c-1 -128 1 -232 6 -232 4 0 102 41 218 91 287 126 360 157 424 183 30 13
75 32 100 44 46 21 221 96 320 137 30 13 98 42 150 65 52 23 120 52 150 65 30
13 134 57 230 99 l175 75 3 219 2 219 -37 16 c-21 9 -80 34 -131 56 -50 23
-94 41 -96 41 -3 0 -33 13 -68 29 -35 16 -206 90 -380 165 -174 74 -372 160
-440 189 -68 30 -184 80 -258 112 -74 31 -184 79 -245 105 l-110 49 -238 3
c-206 3 -240 1 -253 -13z"/>
<path d="M4250 6313 c-19 -8 -134 -58 -255 -110 -121 -52 -233 -100 -250 -108
-124 -54 -307 -133 -590 -255 -181 -78 -399 -172 -483 -208 l-152 -66 2 -218
3 -218 325 -141 c179 -77 350 -151 380 -164 30 -12 255 -109 500 -215 469
-203 556 -240 565 -240 3 0 5 106 5 235 0 146 -4 235 -10 235 -9 0 -456 185
-555 229 -22 10 -96 42 -165 71 -117 49 -238 100 -407 172 -40 17 -73 33 -73
37 0 6 68 37 275 124 229 96 377 158 485 204 153 65 184 77 305 128 61 25 117
49 125 54 13 7 15 46 18 240 1 127 -1 231 -5 230 -5 0 -24 -7 -43 -16z"/>
<path d="M4045 4084 c4 -38 15 -121 26 -184 10 -63 19 -116 19 -117 0 -2 9 -3
20 -3 11 0 20 2 20 4 0 2 11 77 25 166 30 194 30 190 7 190 -16 0 -21 -14 -32
-100 -7 -56 -16 -103 -20 -105 -4 -2 -13 41 -20 96 -11 81 -17 102 -33 111
-19 10 -19 8 -12 -58z"/>
<path d="M4983 4142 c-56 -2 -73 -6 -73 -17 0 -9 10 -15 25 -15 l25 0 0 -163
c0 -90 3 -166 6 -170 3 -3 12 -3 20 0 11 4 14 38 14 169 l0 164 29 0 c16 0 31
6 34 15 8 19 3 20 -80 17z"/>
<path d="M5310 3985 c0 -140 -2 -167 -15 -172 -9 -3 -19 -2 -23 2 -4 3 -8 78
-10 166 -3 130 -6 159 -18 159 -11 0 -14 -26 -14 -149 0 -82 -3 -156 -6 -164
-8 -21 31 -57 61 -57 14 0 34 9 45 20 18 18 20 33 20 184 0 140 -2 165 -16
170 -9 3 -18 6 -20 6 -2 0 -4 -74 -4 -165z"/>
<path d="M5554 4137 c-2 -7 -3 -89 -2 -182 l3 -170 58 -3 c45 -2 57 0 57 12 0
10 -12 16 -37 18 l-38 3 -3 162 c-2 133 -5 162 -18 167 -8 3 -17 0 -20 -7z"/>
<path d="M4370 3960 c0 -173 1 -180 20 -180 19 0 20 7 20 180 0 173 -1 180
-20 180 -19 0 -20 -7 -20 -180z"/>
<path d="M4622 3958 c3 -155 5 -183 18 -183 12 0 16 17 18 78 3 69 5 77 22 77
18 0 20 -7 20 -73 0 -78 4 -89 26 -80 11 4 14 39 13 171 0 105 -4 171 -11 179
-6 7 -31 13 -59 13 l-49 0 2 -182z m76 79 c3 -62 1 -67 -18 -67 -18 0 -20 6
-20 71 0 62 2 70 18 67 14 -3 18 -16 20 -71z"/>
<path d="M5850 4048 c-1 -51 -2 -132 -3 -181 l-2 -87 52 0 c28 0 55 5 58 11
10 15 -1 22 -35 21 -26 -1 -30 3 -36 34 -9 50 3 98 27 109 31 14 29 29 -3 33
-26 3 -28 7 -28 46 0 42 22 87 36 74 8 -9 34 9 34 23 0 5 -22 9 -50 9 l-50 0
0 -92z"/>
</g>
</svg>
